# xmcd CD database file
#
# Track frame offsets:
#	150
#	16360
#	32532
#
# Disc length: 647 seconds
#
# Revision: 0
# Processed by: cddbd v1.5.1PL0 Copyright (c) Steve Scherf et al.
# Submitted via: CDex 1.51
#
DISCID=17028503
DTITLE=ラナ hanako マキサック - don't know why?
DYEAR=2000
DGENRE=J-POP
TTITLE0=don't know why? -Hanako ver.-
TTITLE1=don't know why? -Lana ver.-
TTITLE2=don't know why? -original karaoke.-
EXTD=YEAR: 2000.09.06
EXTT0=
EXTT1=
EXTT2=
PLAYORDER=
